<?xml version="1.0" encoding="UTF-8" standalone="no"?>
<!-- Created with Inkscape (http://www.inkscape.org/) -->

<svg
   width="98.981468mm"
   height="111.61398mm"
   viewBox="0 0 98.981468 111.61398"
   version="1.1"
   id="svg1"
   xml:space="preserve"
   xmlns="http://www.w3.org/2000/svg"
   xmlns:svg="http://www.w3.org/2000/svg"><defs
   id="defs1" /><g
   id="layer2"
   style="display:inline"
   transform="translate(-54.941235,-86.739762)"><path
   style="fill:#06bf7b;fill-opacity:1"
   d="m 101.93699,198.19786 -0.84363,-0.1474 1.06187,-2.09447 c 5.75855,-11.35835 16.00987,-19.1953 29.59727,-22.6266 10.14145,-2.56107 17.17919,-5.85737 21.29665,-9.97484 1.95403,-1.95402 -0.51151,4.56253 -3.66727,9.69279 -3.2485,5.28103 -13.56722,15.875 -15.46254,15.875 -0.14887,0 -0.31035,0.10109 -0.35886,0.22464 -0.32202,0.82023 -8.13373,4.61083 -12.52361,6.07703 -6.72562,2.24633 -15.47072,3.60794 -19.09988,2.97385 z M 55.032131,172.98119 c 0.01082,-30.97042 -2.193842,-26.87658 14.489162,-26.905 l 9.603173,-0.0164 0.649432,0.64943 0.649432,0.64943 v 11.76414 11.76413 l -2.283578,2.20466 c -14.247319,13.75496 -16.477903,16.54258 -18.6482,23.30519 l -0.573154,1.78594 h -1.947535 -1.947534 z m 8.722448,24.92247 c 0,-0.80347 2.340532,-5.36561 3.947643,-7.69471 1.815005,-2.63038 5.451737,-6.31549 16.415594,-16.63396 7.703141,-7.24969 15.340878,-14.47452 21.272674,-20.12265 6.55334,-6.23994 8.35411,-13.53563 4.99161,-20.2232 -6.49825,-12.92419 -26.052269,-10.19909 -28.935699,4.03257 l -0.334891,1.65291 -12.138496,-0.0654 -12.138495,-0.0654 -0.905595,-0.98831 -0.905595,-0.9883 V 114.38709 91.966975 l 2.182812,2.31173 c 5.95569,6.307425 12.224885,9.215385 20.769793,9.634025 l 3.241146,0.1588 v 6.33184 c 0,3.48251 0.0893,6.28921 0.198438,6.23711 0.10914,-0.0521 1.136624,-0.54809 2.283298,-1.10219 1.146673,-0.5541 2.277767,-1.04814 2.513541,-1.09785 0.235775,-0.0497 0.964463,-0.285 1.619307,-0.52286 4.581426,-1.6641 11.159619,-2.01853 15.610416,-0.84108 3.04176,0.80469 8.15271,3.12184 9.32574,4.228 0.18235,0.17196 0.86464,0.66984 1.5162,1.1064 8.13659,5.45174 12.289,17.13377 9.68683,27.25208 -1.99181,7.745 -6.57588,13.5137 -19.97373,25.13542 -0.50328,0.43656 -2.51262,2.2225 -4.465187,3.96875 -1.952573,1.74625 -4.103991,3.63074 -4.78093,4.18775 -2.542344,2.09195 -7.330341,6.94652 -9.168298,9.29577 -0.436562,0.55801 -1.182132,1.48617 -1.656822,2.06259 -0.47469,0.57641 -1.298256,1.83872 -1.830147,2.80512 -0.531891,0.96641 -1.448682,2.50124 -2.037314,3.41075 l -1.07024,1.65365 H 71.37138 c -5.165581,0 -7.616801,-0.0898 -7.616801,-0.2791 z m 69.056251,-39.50384 c 0,-0.0525 0.6009,-1.37902 1.33533,-2.94786 9.67669,-20.67063 -0.17956,-44.61304 -22.10492,-53.69644 -5.16444,-2.139555 -9.00961,-2.544375 -23.944993,-2.520885 -14.776153,0.0232 -15.850229,-0.10213 -20.346197,-2.37484 -3.591554,-1.81553 -10.345471,-8.10909 -10.345471,-9.64032 0,-0.6167 46.471531,-0.64957 50.842721,-0.036 24.90968,3.4967 43.45291,23.189485 45.60719,48.434555 0.71404,8.3676 -4.2024,15.77582 -13.59159,20.48017 -2.56956,1.28744 -7.45207,2.79542 -7.45207,2.30159 z"
   id="ico" />
      </g>
</svg>
